<?xml version="1.0" standalone="no"?><!DOCTYPE svg PUBLIC "-//W3C//DTD SVG 1.1//EN" "http://www.w3.org/Graphics/SVG/1.1/DTD/svg11.dtd"><svg t="1730786098150" class="icon" viewBox="0 0 1024 1024" version="1.1" xmlns="http://www.w3.org/2000/svg" p-id="28216" xmlns:xlink="http://www.w3.org/1999/xlink" width="200" height="200"><path d="M456.30785512 1013.22930798h111.38428976v111.38429115h-111.38428976z" fill="#FFFFFF" p-id="28217"></path><path d="M10.77069202 1013.22930798h111.38428972v111.38429115H10.77069202zM901.84501826 1013.22930798h111.38428972v111.38429115h-111.38428972zM1124.61359913 679.07643601h111.3842911v111.38429111h-111.3842911zM1124.61359913 567.69214488h111.3842911v111.38429113h-111.3842911zM1124.61359913 456.30785512h111.3842911v111.38428976h-111.3842911zM1124.61359913 344.92356399h111.3842911v111.38429113h-111.3842911zM1124.61359913 233.53927288h111.3842911v111.38429111h-111.3842911zM1013.22930798 790.46072712h111.38429115v111.38429114h-111.38429115z" fill="#1E2028" p-id="28218"></path><path d="M1013.22930798 679.07643601h111.38429115v111.38429111h-111.38429115zM1013.22930798 567.69214488h111.38429115v111.38429113h-111.38429115zM1013.22930798 456.30785512h111.38429115v111.38428976h-111.38429115zM1013.22930798 344.92356399h111.38429115v111.38429113h-111.38429115zM1013.22930798 233.53927288h111.38429115v111.38429111h-111.38429115z" fill="#FF9343" p-id="28219"></path><path d="M1013.22930798 122.15498174h111.38429115v111.38429114h-111.38429115zM1013.22930798 10.77069202h111.38429115v111.38428972h-111.38429115zM1013.22930798-100.61359913h111.38429115v111.38429115h-111.38429115zM1013.22930798-211.99789023h111.38429115v111.3842911h-111.38429115zM901.84501826 901.84501826h111.38428972v111.38428972h-111.38428972z" fill="#1E2028" p-id="28220"></path><path d="M901.84501826 790.46072712h111.38428972v111.38429114h-111.38428972z" fill="#FF9343" p-id="28221"></path><path d="M901.84501826 679.07643601h111.38428972v111.38429111h-111.38428972zM901.84501826 567.69214488h111.38428972v111.38429113h-111.38428972zM901.84501826 456.30785512h111.38428972v111.38428976h-111.38428972zM901.84501826 344.92356399h111.38428972v111.38429113h-111.38428972zM901.84501826 233.53927288h111.38428972v111.38429111h-111.38428972z" fill="#FFDD4D" p-id="28222"></path><path d="M901.84501826 122.15498174h111.38428972v111.38429114h-111.38428972zM901.84501826 10.77069202h111.38428972v111.38428972h-111.38428972zM901.84501826-100.61359913h111.38428972v111.38429115h-111.38428972z" fill="#FF9343" p-id="28223"></path><path d="M901.84501826-211.99789023h111.38428972v111.3842911h-111.38428972zM790.46072712 901.84501826h111.38429114v111.38428972h-111.38429114z" fill="#1E2028" p-id="28224"></path><path d="M790.46072712 790.46072712h111.38429114v111.38429114h-111.38429114z" fill="#FF9343" p-id="28225"></path><path d="M790.46072712 679.07643601h111.38429114v111.38429111h-111.38429114zM790.46072712 567.69214488h111.38429114v111.38429113h-111.38429114zM790.46072712 456.30785512h111.38429114v111.38428976h-111.38429114zM790.46072712 344.92356399h111.38429114v111.38429113h-111.38429114zM790.46072712 233.53927288h111.38429114v111.38429111h-111.38429114zM790.46072712 122.15498174h111.38429114v111.38429114h-111.38429114zM790.46072712 10.77069202h111.38429114v111.38428972h-111.38429114z" fill="#FFDD4D" p-id="28226"></path><path d="M790.46072712-100.61359913h111.38429114v111.38429115h-111.38429114zM679.07643601 901.84501826h111.38429111v111.38428972h-111.38429111z" fill="#1E2028" p-id="28227"></path><path d="M679.07643601 790.46072712h111.38429111v111.38429114h-111.38429111z" fill="#FF9343" p-id="28228"></path><path d="M679.07643601 679.07643601h111.38429111v111.38429111h-111.38429111z" fill="#FFDD4D" p-id="28229"></path><path d="M679.07643601 567.69214488h111.38429111v111.38429113h-111.38429111zM679.07643601 456.30785512h111.38429111v111.38428976h-111.38429111z" fill="#1E2028" p-id="28230"></path><path d="M679.07643601 344.92356399h111.38429111v111.38429113h-111.38429111z" fill="#FFDD4D" p-id="28231"></path><path d="M679.07643601 233.53927288h111.38429111v111.38429111h-111.38429111zM679.07643601 122.15498174h111.38429111v111.38429114h-111.38429111z" fill="#FF9343" p-id="28232"></path><path d="M679.07643601 10.77069202h111.38429111v111.38428972h-111.38429111zM567.69214488 901.84501826h111.38429113v111.38428972h-111.38429113z" fill="#1E2028" p-id="28233"></path><path d="M567.69214488 790.46072712h111.38429113v111.38429114h-111.38429113z" fill="#FF9343" p-id="28234"></path><path d="M567.69214488 679.07643601h111.38429113v111.38429111h-111.38429113zM567.69214488 567.69214488h111.38429113v111.38429113h-111.38429113zM567.69214488 456.30785512h111.38429113v111.38428976h-111.38429113zM567.69214488 344.92356399h111.38429113v111.38429113h-111.38429113zM567.69214488 233.53927288h111.38429113v111.38429111h-111.38429113zM567.69214488 122.15498174h111.38429113v111.38429114h-111.38429113z" fill="#FFDD4D" p-id="28235"></path><path d="M567.69214488 10.77069202h111.38429113v111.38428972h-111.38429113zM456.30785512 901.84501826h111.38428976v111.38428972h-111.38428976z" fill="#1E2028" p-id="28236"></path><path d="M456.30785512 790.46072712h111.38428976v111.38429114h-111.38428976z" fill="#FF9343" p-id="28237"></path><path d="M456.30785512 679.07643601h111.38428976v111.38429111h-111.38428976z" fill="#1E2028" p-id="28238"></path><path d="M456.30785512 567.69214488h111.38428976v111.38429113h-111.38428976zM456.30785512 456.30785512h111.38428976v111.38428976h-111.38428976zM456.30785512 344.92356399h111.38428976v111.38429113h-111.38428976z" fill="#FFDD4D" p-id="28239"></path><path d="M456.30785512 233.53927288h111.38428976v111.38429111h-111.38428976zM456.30785512 122.15498174h111.38428976v111.38429114h-111.38428976z" fill="#FF9343" p-id="28240"></path><path d="M456.30785512 10.77069202h111.38428976v111.38428972h-111.38428976zM344.92356399 901.84501826h111.38429113v111.38428972h-111.38429113z" fill="#1E2028" p-id="28241"></path><path d="M344.92356399 790.46072712h111.38429113v111.38429114h-111.38429113z" fill="#FF9343" p-id="28242"></path><path d="M344.92356399 679.07643601h111.38429113v111.38429111h-111.38429113zM344.92356399 567.69214488h111.38429113v111.38429113h-111.38429113zM344.92356399 456.30785512h111.38429113v111.38428976h-111.38429113zM344.92356399 344.92356399h111.38429113v111.38429113h-111.38429113zM344.92356399 233.53927288h111.38429113v111.38429111h-111.38429113zM344.92356399 122.15498174h111.38429113v111.38429114h-111.38429113z" fill="#FFDD4D" p-id="28243"></path><path d="M344.92356399 10.77069202h111.38429113v111.38428972h-111.38429113zM233.53927288 901.84501826h111.38429111v111.38428972h-111.38429111z" fill="#1E2028" p-id="28244"></path><path d="M233.53927288 790.46072712h111.38429111v111.38429114h-111.38429111z" fill="#FF9343" p-id="28245"></path><path d="M233.53927288 679.07643601h111.38429111v111.38429111h-111.38429111z" fill="#FFDD4D" p-id="28246"></path><path d="M233.53927288 567.69214488h111.38429111v111.38429113h-111.38429111zM233.53927288 456.30785512h111.38429111v111.38428976h-111.38429111z" fill="#1E2028" p-id="28247"></path><path d="M233.53927288 344.92356399h111.38429111v111.38429113h-111.38429111z" fill="#FFDD4D" p-id="28248"></path><path d="M233.53927288 233.53927288h111.38429111v111.38429111h-111.38429111zM233.53927288 122.15498174h111.38429111v111.38429114h-111.38429111z" fill="#FF9343" p-id="28249"></path><path d="M233.53927288 10.77069202h111.38429111v111.38428972h-111.38429111zM122.15498174 901.84501826h111.38429114v111.38428972h-111.38429114z" fill="#1E2028" p-id="28250"></path><path d="M122.15498174 790.46072712h111.38429114v111.38429114h-111.38429114z" fill="#FFF1B6" p-id="28251"></path><path d="M122.15498174 679.07643601h111.38429114v111.38429111h-111.38429114zM122.15498174 567.69214488h111.38429114v111.38429113h-111.38429114zM122.15498174 456.30785512h111.38429114v111.38428976h-111.38429114zM122.15498174 344.92356399h111.38429114v111.38429113h-111.38429114zM122.15498174 233.53927288h111.38429114v111.38429111h-111.38429114zM122.15498174 122.15498174h111.38429114v111.38429114h-111.38429114zM122.15498174 10.77069202h111.38429114v111.38428972h-111.38429114z" fill="#FFDD4D" p-id="28252"></path><path d="M122.15498174-100.61359913h111.38429114v111.38429115h-111.38429114zM10.77069202 901.84501826h111.38428972v111.38428972H10.77069202z" fill="#1E2028" p-id="28253"></path><path d="M10.77069202 790.46072712h111.38428972v111.38429114H10.77069202z" fill="#FFF1B6" p-id="28254"></path><path d="M10.77069202 679.07643601h111.38428972v111.38429111H10.77069202zM10.77069202 567.69214488h111.38428972v111.38429113H10.77069202zM10.77069202 456.30785512h111.38428972v111.38428976H10.77069202zM10.77069202 344.92356399h111.38428972v111.38429113H10.77069202zM10.77069202 233.53927288h111.38428972v111.38429111H10.77069202z" fill="#FFDD4D" p-id="28255"></path><path d="M10.77069202 122.15498174h111.38428972v111.38429114H10.77069202zM10.77069202 10.77069202h111.38428972v111.38428972H10.77069202zM10.77069202-100.61359913h111.38428972v111.38429115H10.77069202z" fill="#FFF1B6" p-id="28256"></path><path d="M10.77069202-211.99789023h111.38428972v111.3842911H10.77069202zM-100.61359913 790.46072712h111.38429115v111.38429114H-100.61359913z" fill="#1E2028" p-id="28257"></path><path d="M-100.61359913 679.07643601h111.38429115v111.38429111H-100.61359913zM-100.61359913 567.69214488h111.38429115v111.38429113H-100.61359913zM-100.61359913 456.30785512h111.38429115v111.38428976H-100.61359913zM-100.61359913 344.92356399h111.38429115v111.38429113H-100.61359913zM-100.61359913 233.53927288h111.38429115v111.38429111H-100.61359913z" fill="#FFF1B6" p-id="28258"></path><path d="M-100.61359913 122.15498174h111.38429115v111.38429114H-100.61359913zM-100.61359913 10.77069202h111.38429115v111.38428972H-100.61359913zM-100.61359913-100.61359913h111.38429115v111.38429115H-100.61359913zM-100.61359913-211.99789023h111.38429115v111.3842911H-100.61359913zM-211.99789023 679.07643601h111.3842911v111.38429111H-211.99789023zM-211.99789023 567.69214488h111.3842911v111.38429113H-211.99789023zM-211.99789023 456.30785512h111.3842911v111.38428976H-211.99789023zM-211.99789023 344.92356399h111.3842911v111.38429113H-211.99789023zM-211.99789023 233.53927288h111.3842911v111.38429111H-211.99789023zM10.77069202 1124.61359913h111.38428972v111.3842911H10.77069202zM122.15498174 1124.61359913h111.38429114v111.3842911h-111.38429114zM233.53927288 1124.61359913h111.38429111v111.3842911h-111.38429111zM344.92356399 1124.61359913h111.38429113v111.3842911h-111.38429113z" fill="#1E2028" p-id="28259"></path><path d="M122.15498174 1013.22930798h111.38429114v111.38429115h-111.38429114z" fill="#AAF2C7" p-id="28260"></path><path d="M233.53927288 1013.22930798h111.38429111v111.38429115h-111.38429111zM344.92356399 1013.22930798h111.38429113v111.38429115h-111.38429113zM567.69214488 1013.22930798h111.38429113v111.38429115h-111.38429113zM679.07643601 1013.22930798h111.38429111v111.38429115h-111.38429111z" fill="#60EF9A" p-id="28261"></path><path d="M790.46072712 1013.22930798h111.38429114v111.38429115h-111.38429114z" fill="#38B269" p-id="28262"></path><path d="M456.30785512 1124.61359913h111.38428976v111.3842911h-111.38428976zM567.69214488 1124.61359913h111.38429113v111.3842911h-111.38429113zM679.07643601 1124.61359913h111.38429111v111.3842911h-111.38429111zM790.46072712 1124.61359913h111.38429114v111.3842911h-111.38429114zM901.84501826 1124.61359913h111.38428972v111.3842911h-111.38428972z" fill="#1E2028" p-id="28263"></path></svg>