<?xml version="1.0" standalone="no"?><!DOCTYPE svg PUBLIC "-//W3C//DTD SVG 1.1//EN" "http://www.w3.org/Graphics/SVG/1.1/DTD/svg11.dtd"><svg t="1730786043602" class="icon" viewBox="0 0 1024 1024" version="1.1" xmlns="http://www.w3.org/2000/svg" p-id="20716" xmlns:xlink="http://www.w3.org/1999/xlink" width="200" height="200"><path d="M867.24 365.81c-39.41-39.41-82.67-56.13-128.59-49.69-41.54 5.82-84.67 30.12-131.89 74.26-43.94 41.1-92 86.68-136.78 129.4-27.15-43.07-42.59-86.07-45.88-127.88a215.92 215.92 0 0 1 16.09-100.54 234.68 234.68 0 0 1 11.93-24.62 80.8 80.8 0 1 0-21.48-30.44 279.28 279.28 0 0 0-21.24 40.6 249.6 249.6 0 0 0-19.26 116.65c3.7 49.41 22 99.71 54.41 149.52 0.14 0.2 0.27 0.4 0.42 0.6C401.79 585 363.29 622 336.78 647.62A93 93 0 0 0 216.29 657L93 780.29a92.94 92.94 0 0 0 131.46 131.43l123.28-123.27a93.08 93.08 0 0 0 12.37-116.11C418 616.47 533.86 505.08 630 415.2c41.35-38.66 79.5-60.67 113.4-65.43 35.28-4.95 67.94 8.16 99.84 40.08 42 42 64.59 91.72 65.21 143.67 0.53 46.16-17.27 91.27-48.84 123.76-33.47 34.47-79.07 52.2-128.45 49.89-58.3-2.72-119.77-33.07-177.73-87.76a17 17 0 1 0-23.32 24.72c73.33 69.19 146.1 97.2 209.59 97.19 58.12 0 108.47-23.48 144.29-60.35 37.78-38.89 59.07-92.78 58.43-147.85-0.73-61-26.72-118.85-75.18-167.31zM459.52 197.94a47 47 0 1 1-0.72 8.21 47.11 47.11 0 0 1 0.72-8.21zM323.7 764.42L200.43 887.7a59 59 0 0 1-83.38 0c-0.72-0.73-1.43-1.47-2.1-2.21a59 59 0 0 1 2.1-81.18l123.27-123.26a59 59 0 0 1 71.42-9.24c-7.49 7.24-11.73 11.36-12 11.6a17 17 0 0 0 23.65 24.4c0.25-0.23 4-3.81 10.49-10.15l1-1a59.07 59.07 0 0 1-11.18 67.76z" fill="#303030" p-id="20717"></path><path d="M552.9 206.15a47.05 47.05 0 1 1-47-47.05 47.09 47.09 0 0 1 47 47.05z" fill="#F86E8A" p-id="20718"></path><path d="M505.9 608.63a16.94 16.94 0 0 1-13.09-6.15c-2-2.36-2.39-2.92-3.12-3.91-0.29-0.39-0.69-0.92-1.72-2.23a17 17 0 1 1 26.74-21c1.35 1.73 1.87 2.43 2.25 2.94s0.46 0.61 2 2.49a17 17 0 0 1-13.07 27.84z" fill="#303030" p-id="20719"></path><path d="M333.89 697.66a75.5 75.5 0 0 1-21.74 45L188.88 866A75.9 75.9 0 0 1 115 885.49a59 59 0 0 1 2.1-81.18l123.22-123.26a59 59 0 0 1 71.42-9.24c-7.49 7.24-11.73 11.36-12 11.6a17 17 0 0 0 23.65 24.4c0.26-0.23 3.96-3.81 10.5-10.15z" fill="#FFFFFF" p-id="20720"></path><path d="M323.7 764.42L200.43 887.7a59 59 0 0 1-83.38 0c-0.72-0.73-1.43-1.47-2.1-2.21A75.9 75.9 0 0 0 188.88 866l123.27-123.3a75.5 75.5 0 0 0 21.74-45l1-1a59.07 59.07 0 0 1-11.19 67.72z" fill="#DDDDDD" p-id="20721"></path></svg>