<?xml version="1.0" standalone="no"?><!DOCTYPE svg PUBLIC "-//W3C//DTD SVG 1.1//EN" "http://www.w3.org/Graphics/SVG/1.1/DTD/svg11.dtd"><svg t="1730987467850" class="icon" viewBox="0 0 1024 1024" version="1.1" xmlns="http://www.w3.org/2000/svg" p-id="11028" xmlns:xlink="http://www.w3.org/1999/xlink" width="200" height="200"><path d="M1024 327.70048h-60.14976v61.35808H1024v-61.35808zM1024 266.1376h-60.14976V327.68H1024v-61.56288z" fill="#000000" p-id="11029"></path><path d="M1024 204.77952h-60.14976v61.35808H1024V204.77952zM963.85024 389.07904h-60.35456v61.56288h60.35456v-61.56288z" fill="#000000" p-id="11030"></path><path d="M963.85024 327.70048h-60.35456v61.35808h60.35456v-61.35808zM963.85024 266.1376h-60.35456V327.68h60.35456v-61.56288z" fill="#FFA733" p-id="11031"></path><path d="M963.85024 204.77952h-60.35456v61.35808h60.35456V204.77952z" fill="#FFA733" p-id="11032"></path><path d="M963.85024 143.40096h-60.35456V204.8h60.35456V143.40096zM903.49568 942.16192h-60.14976V1003.52h60.14976v-61.35808zM903.49568 880.59904h-60.14976v61.56288h60.14976v-61.56288z" fill="#000000" p-id="11033"></path><path d="M903.49568 819.24096h-60.14976v61.35808h60.14976v-61.35808zM903.49568 757.8624h-60.14976V819.2h60.14976v-61.35808z" fill="#000000" p-id="11034"></path><path d="M903.49568 696.27904h-60.14976v61.58336h60.14976v-61.58336z" fill="#000000" p-id="11035"></path><path d="M903.49568 634.94144h-60.14976v61.35808h60.14976v-61.35808zM903.49568 573.35808h-60.14976v61.56288h60.14976v-61.56288zM903.49568 512h-60.14976v61.35808h60.14976V512zM903.49568 450.64192h-60.14976V512h60.14976v-61.35808z" fill="#000000" p-id="11036"></path><path d="M903.49568 389.07904h-60.14976v61.56288h60.14976v-61.56288zM903.49568 327.70048h-60.14976v61.35808h60.14976v-61.35808zM903.49568 266.1376h-60.14976V327.68h60.14976v-61.56288z" fill="#FFA733" p-id="11037"></path><path d="M903.49568 204.77952h-60.14976v61.35808h60.14976V204.77952z" fill="#FFA733" p-id="11038"></path><path d="M903.49568 143.40096h-60.14976V204.8h60.14976V143.40096zM843.34592 942.16192h-60.35456V1003.52h60.35456v-61.35808z" fill="#000000" p-id="11039"></path><path d="M843.34592 880.59904h-60.35456v61.56288h60.35456v-61.56288z" fill="#FFA733" p-id="11040"></path><path d="M843.34592 819.24096h-60.35456v61.35808h60.35456v-61.35808zM843.34592 757.8624h-60.35456V819.2h60.35456v-61.35808z" fill="#FFA733" p-id="11041"></path><path d="M843.34592 696.27904h-60.35456v61.58336h60.35456v-61.58336z" fill="#FFA733" p-id="11042"></path><path d="M843.34592 634.94144h-60.35456v61.35808h60.35456v-61.35808zM843.34592 573.35808h-60.35456v61.56288h60.35456v-61.56288zM843.34592 512h-60.35456v61.35808h60.35456V512zM843.34592 450.64192h-60.35456V512h60.35456v-61.35808zM843.34592 389.07904h-60.35456v61.56288h60.35456v-61.56288z" fill="#FFA733" p-id="11043"></path><path d="M843.34592 327.70048h-60.35456v61.35808h60.35456v-61.35808zM843.34592 266.1376h-60.35456V327.68h60.35456v-61.56288z" fill="#FFF5CC" p-id="11044"></path><path d="M843.34592 204.77952h-60.35456v61.35808h60.35456V204.77952z" fill="#FFF5CC" p-id="11045"></path><path d="M843.34592 143.40096h-60.35456V204.8h60.35456V143.40096z" fill="#FFA733" p-id="11046"></path><path d="M843.34592 81.83808h-60.35456v61.56288h60.35456V81.83808zM782.99136 942.16192h-60.14976V1003.52h60.14976v-61.35808z" fill="#000000" p-id="11047"></path><path d="M782.99136 880.59904h-60.14976v61.56288h60.14976v-61.56288z" fill="#FFA733" p-id="11048"></path><path d="M782.99136 819.24096h-60.14976v61.35808h60.14976v-61.35808zM782.99136 757.8624h-60.14976V819.2h60.14976v-61.35808z" fill="#FFA733" p-id="11049"></path><path d="M782.99136 696.27904h-60.14976v61.58336h60.14976v-61.58336z" fill="#FFA733" p-id="11050"></path><path d="M782.99136 634.94144h-60.14976v61.35808h60.14976v-61.35808zM782.99136 573.35808h-60.14976v61.56288h60.14976v-61.56288zM782.99136 512h-60.14976v61.35808h60.14976V512zM782.99136 450.64192h-60.14976V512h60.14976v-61.35808z" fill="#FFA733" p-id="11051"></path><path d="M782.99136 389.07904h-60.14976v61.56288h60.14976v-61.56288zM782.99136 327.70048h-60.14976v61.35808h60.14976v-61.35808zM782.99136 266.1376h-60.14976V327.68h60.14976v-61.56288z" fill="#FFF5CC" p-id="11052"></path><path d="M782.99136 204.77952h-60.14976v61.35808h60.14976V204.77952z" fill="#FFF5CC" p-id="11053"></path><path d="M782.99136 143.40096h-60.14976V204.8h60.14976V143.40096z" fill="#FFF5CC" p-id="11054"></path><path d="M782.99136 81.83808h-60.14976v61.56288h60.14976V81.83808z" fill="#FFA733" p-id="11055"></path><path d="M782.99136 20.48h-60.14976v61.35808h60.14976V20.48zM722.8416 942.16192h-60.17024V1003.52h60.17024v-61.35808z" fill="#000000" p-id="11056"></path><path d="M722.8416 880.59904h-60.17024v61.56288h60.17024v-61.56288z" fill="#FFF5CC" p-id="11057"></path><path d="M722.8416 819.24096h-60.17024v61.35808h60.17024v-61.35808zM722.8416 757.8624h-60.17024V819.2h60.17024v-61.35808z" fill="#FFF5CC" p-id="11058"></path><path d="M722.8416 696.27904h-60.17024v61.58336h60.17024v-61.58336z" fill="#FFF5CC" p-id="11059"></path><path d="M722.8416 634.94144h-60.17024v61.35808h60.17024v-61.35808zM722.8416 573.35808h-60.17024v61.56288h60.17024v-61.56288zM722.8416 512h-60.17024v61.35808h60.17024V512zM722.8416 450.64192h-60.17024V512h60.17024v-61.35808zM722.8416 389.07904h-60.17024v61.56288h60.17024v-61.56288zM722.8416 327.70048h-60.17024v61.35808h60.17024v-61.35808zM722.8416 266.1376h-60.17024V327.68h60.17024v-61.56288z" fill="#FFF5CC" p-id="11060"></path><path d="M722.8416 204.77952h-60.17024v61.35808h60.17024V204.77952z" fill="#FFF5CC" p-id="11061"></path><path d="M722.8416 143.40096h-60.17024V204.8h60.17024V143.40096z" fill="#FFF5CC" p-id="11062"></path><path d="M722.8416 81.83808h-60.17024v61.56288h60.17024V81.83808z" fill="#FFA733" p-id="11063"></path><path d="M722.8416 20.48h-60.17024v61.35808h60.17024V20.48zM662.69184 942.16192H602.3168V1003.52h60.35456v-61.35808z" fill="#000000" p-id="11064"></path><path d="M662.69184 880.59904H602.3168v61.56288h60.35456v-61.56288z" fill="#FFF5CC" p-id="11065"></path><path d="M662.69184 819.24096H602.3168v61.35808h60.35456v-61.35808zM662.69184 757.8624H602.3168V819.2h60.35456v-61.35808z" fill="#FFF5CC" p-id="11066"></path><path d="M662.69184 696.27904H602.3168v61.58336h60.35456v-61.58336z" fill="#FFF5CC" p-id="11067"></path><path d="M662.69184 634.94144H602.3168v61.35808h60.35456v-61.35808zM662.69184 573.35808H602.3168v61.56288h60.35456v-61.56288zM662.69184 512H602.3168v61.35808h60.35456V512zM662.69184 450.64192H602.3168V512h60.35456v-61.35808zM662.69184 389.07904H602.3168v61.56288h60.35456v-61.56288zM662.69184 327.70048H602.3168v61.35808h60.35456v-61.35808zM662.69184 266.1376H602.3168V327.68h60.35456v-61.56288z" fill="#FFF5CC" p-id="11068"></path><path d="M662.69184 204.77952H602.3168v61.35808h60.35456V204.77952z" fill="#FFF5CC" p-id="11069"></path><path d="M662.69184 143.40096H602.3168V204.8h60.35456V143.40096zM662.69184 81.83808H602.3168v61.56288h60.35456V81.83808z" fill="#FFF5CC" p-id="11070"></path><path d="M662.69184 20.48H602.3168v61.35808h60.35456V20.48zM602.3168 942.16192h-60.12928V1003.52h60.14976v-61.35808z" fill="#000000" p-id="11071"></path><path d="M602.3168 880.59904h-60.12928v61.56288h60.14976v-61.56288z" fill="#FFF5CC" p-id="11072"></path><path d="M602.3168 819.24096h-60.12928v61.35808h60.14976v-61.35808zM602.3168 757.8624h-60.12928V819.2h60.14976v-61.35808z" fill="#FFF5CC" p-id="11073"></path><path d="M602.3168 696.27904h-60.12928v61.58336h60.14976v-61.58336z" fill="#FFF5CC" p-id="11074"></path><path d="M602.3168 634.94144h-60.12928v61.35808h60.14976v-61.35808zM602.3168 573.35808h-60.12928v61.56288h60.14976v-61.56288zM602.3168 512h-60.12928v61.35808h60.14976V512zM602.3168 450.64192h-60.12928V512h60.14976v-61.35808zM602.3168 389.07904h-60.12928v61.56288h60.14976v-61.56288zM602.3168 327.70048h-60.12928v61.35808h60.14976v-61.35808zM602.3168 266.1376h-60.12928V327.68h60.14976v-61.56288z" fill="#FFF5CC" p-id="11075"></path><path d="M602.3168 204.77952h-60.12928v61.35808h60.14976V204.77952z" fill="#FFF5CC" p-id="11076"></path><path d="M602.3168 143.40096h-60.12928V204.8h60.14976V143.40096zM602.3168 81.83808h-60.12928v61.56288h60.14976V81.83808z" fill="#FFF5CC" p-id="11077"></path><path d="M602.3168 20.48h-60.12928v61.35808h60.14976V20.48zM542.18752 942.16192h-60.35456V1003.52h60.35456v-61.35808z" fill="#000000" p-id="11078"></path><path d="M542.18752 880.59904h-60.35456v61.56288h60.35456v-61.56288z" fill="#FFF5CC" p-id="11079"></path><path d="M542.18752 819.24096h-60.35456v61.35808h60.35456v-61.35808zM542.18752 757.8624h-60.35456V819.2h60.35456v-61.35808z" fill="#FFF5CC" p-id="11080"></path><path d="M542.18752 696.27904h-60.35456v61.58336h60.35456v-61.58336z" fill="#FFF5CC" p-id="11081"></path><path d="M542.18752 634.94144h-60.35456v61.35808h60.35456v-61.35808zM542.18752 573.35808h-60.35456v61.56288h60.35456v-61.56288zM542.18752 512h-60.35456v61.35808h60.35456V512zM542.18752 450.64192h-60.35456V512h60.35456v-61.35808zM542.18752 389.07904h-60.35456v61.56288h60.35456v-61.56288zM542.18752 327.70048h-60.35456v61.35808h60.35456v-61.35808zM542.18752 266.1376h-60.35456V327.68h60.35456v-61.56288z" fill="#FFF5CC" p-id="11082"></path><path d="M542.18752 204.77952h-60.35456v61.35808h60.35456V204.77952z" fill="#FFF5CC" p-id="11083"></path><path d="M542.18752 143.40096h-60.35456V204.8h60.35456V143.40096zM542.18752 81.83808h-60.35456v61.56288h60.35456V81.83808z" fill="#FFF5CC" p-id="11084"></path><path d="M542.18752 20.48h-60.35456v61.35808h60.35456V20.48zM481.81248 942.16192H421.6832V1003.52h60.17024v-61.35808z" fill="#000000" p-id="11085"></path><path d="M481.81248 880.59904H421.6832v61.56288h60.17024v-61.56288z" fill="#FFF5CC" p-id="11086"></path><path d="M481.81248 819.24096H421.6832v61.35808h60.17024v-61.35808zM481.81248 757.8624H421.6832V819.2h60.17024v-61.35808z" fill="#FFF5CC" p-id="11087"></path><path d="M481.81248 696.27904H421.6832v61.58336h60.17024v-61.58336z" fill="#FFF5CC" p-id="11088"></path><path d="M481.81248 634.94144H421.6832v61.35808h60.17024v-61.35808zM481.81248 573.35808H421.6832v61.56288h60.17024v-61.56288zM481.81248 512H421.6832v61.35808h60.17024V512zM481.81248 450.64192H421.6832V512h60.17024v-61.35808zM481.81248 389.07904H421.6832v61.56288h60.17024v-61.56288zM481.81248 327.70048H421.6832v61.35808h60.17024v-61.35808zM481.81248 266.1376H421.6832V327.68h60.17024v-61.56288z" fill="#FFF5CC" p-id="11089"></path><path d="M481.81248 204.77952H421.6832v61.35808h60.17024V204.77952z" fill="#FFF5CC" p-id="11090"></path><path d="M481.81248 143.40096H421.6832V204.8h60.17024V143.40096zM481.81248 81.83808H421.6832v61.56288h60.17024V81.83808z" fill="#FFF5CC" p-id="11091"></path><path d="M481.81248 20.48H421.6832v61.35808h60.17024V20.48zM421.6832 942.16192h-60.37504V1003.52h60.35456v-61.35808z" fill="#000000" p-id="11092"></path><path d="M421.6832 880.59904h-60.37504v61.56288h60.35456v-61.56288z" fill="#FFF5CC" p-id="11093"></path><path d="M421.6832 819.24096h-60.37504v61.35808h60.35456v-61.35808zM421.6832 757.8624h-60.37504V819.2h60.35456v-61.35808z" fill="#FFF5CC" p-id="11094"></path><path d="M421.6832 696.27904h-60.37504v61.58336h60.35456v-61.58336z" fill="#FFF5CC" p-id="11095"></path><path d="M421.6832 634.94144h-60.37504v61.35808h60.35456v-61.35808zM421.6832 573.35808h-60.37504v61.56288h60.35456v-61.56288zM421.6832 512h-60.37504v61.35808h60.35456V512zM421.6832 450.64192h-60.37504V512h60.35456v-61.35808zM421.6832 389.07904h-60.37504v61.56288h60.35456v-61.56288zM421.6832 327.70048h-60.37504v61.35808h60.35456v-61.35808zM421.6832 266.1376h-60.37504V327.68h60.35456v-61.56288z" fill="#FFF5CC" p-id="11096"></path><path d="M421.6832 204.77952h-60.37504v61.35808h60.35456V204.77952z" fill="#FFF5CC" p-id="11097"></path><path d="M421.6832 143.40096h-60.37504V204.8h60.35456V143.40096zM421.6832 81.83808h-60.37504v61.56288h60.35456V81.83808z" fill="#FFF5CC" p-id="11098"></path><path d="M421.6832 20.48h-60.37504v61.35808h60.35456V20.48zM361.30816 942.16192h-60.14976V1003.52h60.14976v-61.35808z" fill="#000000" p-id="11099"></path><path d="M361.30816 880.59904h-60.14976v61.56288h60.14976v-61.56288z" fill="#FFF5CC" p-id="11100"></path><path d="M361.30816 819.24096h-60.14976v61.35808h60.14976v-61.35808zM361.30816 757.8624h-60.14976V819.2h60.14976v-61.35808z" fill="#FFF5CC" p-id="11101"></path><path d="M361.30816 696.27904h-60.14976v61.58336h60.14976v-61.58336z" fill="#FFF5CC" p-id="11102"></path><path d="M361.30816 634.94144h-60.14976v61.35808h60.14976v-61.35808zM361.30816 573.35808h-60.14976v61.56288h60.14976v-61.56288zM361.30816 512h-60.14976v61.35808h60.14976V512zM361.30816 450.64192h-60.14976V512h60.14976v-61.35808zM361.30816 389.07904h-60.14976v61.56288h60.14976v-61.56288zM361.30816 327.70048h-60.14976v61.35808h60.14976v-61.35808zM361.30816 266.1376h-60.14976V327.68h60.14976v-61.56288z" fill="#FFF5CC" p-id="11103"></path><path d="M361.30816 204.77952h-60.14976v61.35808h60.14976V204.77952z" fill="#FFF5CC" p-id="11104"></path><path d="M361.30816 143.40096h-60.14976V204.8h60.14976V143.40096zM361.30816 81.83808h-60.14976v61.56288h60.14976V81.83808z" fill="#FFF5CC" p-id="11105"></path><path d="M361.30816 20.48h-60.14976v61.35808h60.14976V20.48zM301.1584 942.16192h-60.14976V1003.52h60.14976v-61.35808z" fill="#000000" p-id="11106"></path><path d="M301.1584 880.59904h-60.14976v61.56288h60.14976v-61.56288z" fill="#FFF5CC" p-id="11107"></path><path d="M301.1584 819.24096h-60.14976v61.35808h60.14976v-61.35808zM301.1584 757.8624h-60.14976V819.2h60.14976v-61.35808z" fill="#FFF5CC" p-id="11108"></path><path d="M301.1584 696.27904h-60.14976v61.58336h60.14976v-61.58336z" fill="#FFF5CC" p-id="11109"></path><path d="M301.1584 634.94144h-60.14976v61.35808h60.14976v-61.35808zM301.1584 573.35808h-60.14976v61.56288h60.14976v-61.56288zM301.1584 512h-60.14976v61.35808h60.14976V512zM301.1584 450.64192h-60.14976V512h60.14976v-61.35808zM301.1584 389.07904h-60.14976v61.56288h60.14976v-61.56288zM301.1584 327.70048h-60.14976v61.35808h60.14976v-61.35808zM301.1584 266.1376h-60.14976V327.68h60.14976v-61.56288z" fill="#FFF5CC" p-id="11110"></path><path d="M301.1584 204.77952h-60.14976v61.35808h60.14976V204.77952z" fill="#FFF5CC" p-id="11111"></path><path d="M301.1584 143.40096h-60.14976V204.8h60.14976V143.40096zM301.1584 81.83808h-60.14976v61.56288h60.14976V81.83808z" fill="#FFF5CC" p-id="11112"></path><path d="M301.1584 20.48h-60.14976v61.35808h60.14976V20.48zM241.00864 942.16192H180.65408V1003.52h60.35456v-61.35808z" fill="#000000" p-id="11113"></path><path d="M241.00864 880.59904H180.65408v61.56288h60.35456v-61.56288z" fill="#FFF5CC" p-id="11114"></path><path d="M241.00864 819.24096H180.65408v61.35808h60.35456v-61.35808zM241.00864 757.8624H180.65408V819.2h60.35456v-61.35808z" fill="#FFF5CC" p-id="11115"></path><path d="M241.00864 696.27904H180.65408v61.58336h60.35456v-61.58336z" fill="#FFF5CC" p-id="11116"></path><path d="M241.00864 634.94144H180.65408v61.35808h60.35456v-61.35808zM241.00864 573.35808H180.65408v61.56288h60.35456v-61.56288zM241.00864 512H180.65408v61.35808h60.35456V512zM241.00864 450.64192H180.65408V512h60.35456v-61.35808zM241.00864 389.07904H180.65408v61.56288h60.35456v-61.56288zM241.00864 327.70048H180.65408v61.35808h60.35456v-61.35808zM241.00864 266.1376H180.65408V327.68h60.35456v-61.56288z" fill="#FFF5CC" p-id="11117"></path><path d="M241.00864 204.77952H180.65408v61.35808h60.35456V204.77952z" fill="#FFF5CC" p-id="11118"></path><path d="M241.00864 143.40096H180.65408V204.8h60.35456V143.40096z" fill="#FFF5CC" p-id="11119"></path><path d="M241.00864 81.83808H180.65408v61.56288h60.35456V81.83808zM180.65408 942.16192H120.50432V1003.52h60.14976v-61.35808zM180.65408 880.59904H120.50432v61.56288h60.14976v-61.56288z" fill="#000000" p-id="11120"></path><path d="M180.65408 819.24096H120.50432v61.35808h60.14976v-61.35808zM180.65408 757.8624H120.50432V819.2h60.14976v-61.35808z" fill="#000000" p-id="11121"></path><path d="M180.65408 696.27904H120.50432v61.58336h60.14976v-61.58336z" fill="#000000" p-id="11122"></path><path d="M180.65408 634.94144H120.50432v61.35808h60.14976v-61.35808zM180.65408 573.35808H120.50432v61.56288h60.14976v-61.56288zM180.65408 512H120.50432v61.35808h60.14976V512zM180.65408 450.64192H120.50432V512h60.14976v-61.35808z" fill="#000000" p-id="11123"></path><path d="M180.65408 389.07904H120.50432v61.56288h60.14976v-61.56288zM180.65408 327.70048H120.50432v61.35808h60.14976v-61.35808zM180.65408 266.1376H120.50432V327.68h60.14976v-61.56288z" fill="#FFF5CC" p-id="11124"></path><path d="M180.65408 204.77952H120.50432v61.35808h60.14976V204.77952z" fill="#FFF5CC" p-id="11125"></path><path d="M180.65408 143.40096H120.50432V204.8h60.14976V143.40096z" fill="#FFF5CC" p-id="11126"></path><path d="M180.65408 81.83808H120.50432v61.56288h60.14976V81.83808zM120.50432 389.07904H60.14976v61.56288h60.35456v-61.56288z" fill="#000000" p-id="11127"></path><path d="M120.50432 327.70048H60.14976v61.35808h60.35456v-61.35808zM120.50432 266.1376H60.14976V327.68h60.35456v-61.56288z" fill="#FFF5CC" p-id="11128"></path><path d="M120.50432 204.77952H60.14976v61.35808h60.35456V204.77952z" fill="#FFF5CC" p-id="11129"></path><path d="M120.50432 143.40096H60.14976V204.8h60.35456V143.40096zM60.14976 327.70048H0v61.35808h60.14976v-61.35808zM60.14976 266.1376H0V327.68h60.14976v-61.56288z" fill="#000000" p-id="11130"></path><path d="M60.14976 204.77952H0v61.35808h60.14976V204.77952z" fill="#000000" p-id="11131"></path></svg>