<?xml version="1.0" standalone="no"?><!DOCTYPE svg PUBLIC "-//W3C//DTD SVG 1.1//EN" "http://www.w3.org/Graphics/SVG/1.1/DTD/svg11.dtd"><svg t="1730988459758" class="icon" viewBox="0 0 1024 1024" version="1.1" xmlns="http://www.w3.org/2000/svg" p-id="29890" xmlns:xlink="http://www.w3.org/1999/xlink" width="200" height="200"><path d="M827.733333 304.469333h-6.826666l6.656 597.674667c0 4.608-3.584 8.362667-8.192 8.362667l-611.84 3.413333c-4.608 0-8.362667-3.754667-8.362667-8.362667l4.096-601.088h-6.826667c-42.325333 0-76.8-34.645333-76.8-76.8 0-42.325333 34.645333-76.8 76.8-76.8H827.733333c42.325333 0 76.8 34.645333 76.8 76.8s-34.645333 76.8-76.8 76.8z" fill="#FFE4C6" p-id="29891"></path><path d="M920.917333 228.693333c0.682667-52.053333-43.008-94.549333-94.890666-94.549333H197.802667C146.773333 134.144 104.106667 174.421333 102.912 225.28c-1.024 49.152 36.010667 89.941333 83.626667 94.890667L182.613333 905.386667c0 6.656 2.56 12.970667 7.168 17.578666 4.608 4.778667 10.922667 7.338667 17.578667 7.338667h0.170667l611.84-3.413333c6.656 0 12.8-2.730667 17.408-7.338667 4.608-4.778667 7.168-10.922667 7.168-17.578667l-6.485334-581.461333c46.421333-4.949333 82.944-44.202667 83.456-91.818667z m-94.378666 59.221334H824.32c-11.093333 0-20.138667 9.045333-19.968 20.138666l6.485333 585.728-595.285333 3.242667 3.925333-589.141333c0-11.093333-8.874667-20.138667-19.968-20.138667h-2.048c-33.792 0-62.122667-27.648-61.610666-61.44C136.533333 193.706667 163.328 167.253333 196.266667 167.253333h631.466666c32.938667 0 59.733333 26.453333 60.416 59.392 0.512 33.621333-27.818667 61.269333-61.610666 61.269334z" fill="#572C00" p-id="29892"></path><path d="M395.093333 410.965333c2.56-32.426667-24.405333-59.562667-57.002666-57.002666-25.6 2.048-46.250667 22.698667-48.469334 48.298666-2.56 32.597333 24.405333 59.562667 57.002667 57.002667 25.770667-2.048 46.592-22.698667 48.469333-48.298667z m-48.981333 23.552c-18.432 2.389333-33.962667-13.141333-31.573333-31.573333 1.536-12.458667 11.776-22.698667 24.234666-24.234667 18.432-2.389333 33.792 13.141333 31.573334 31.573334-1.536 12.629333-11.605333 22.698667-24.234667 24.234666zM678.4 522.752c-33.792-2.730667-61.952 25.429333-59.221333 59.221333 2.048 26.624 23.722667 48.128 50.176 50.176 33.792 2.730667 61.952-25.429333 59.221333-59.221333-2.048-26.453333-23.552-47.957333-50.176-50.176z m-0.512 84.821333c-19.797333 2.56-36.352-14.165333-33.962667-33.962666 1.706667-13.482667 12.629333-24.234667 25.941334-25.941334 19.626667-2.56 36.352 14.165333 33.792 33.792-1.365333 13.482667-12.288 24.234667-25.770667 26.112zM577.536 269.312c-18.261333-3.584-34.304 12.458667-30.72 30.72 2.048 10.24 10.24 18.432 20.48 20.48 18.261333 3.584 34.304-12.458667 30.72-30.72-2.048-10.410667-10.24-18.602667-20.48-20.48z" fill="#572C00" p-id="29893"></path><path d="M361.009728 718.279031a25.6 25.770667 44.999 1 0 36.44459-36.445862 25.6 25.770667 44.999 1 0-36.44459 36.445862Z" fill="#572C00" p-id="29894"></path><path d="M672.768 777.045333c-20.138667-3.925333-37.888 13.653333-33.962667 33.962667 2.218667 11.264 11.264 20.48 22.698667 22.528 20.138667 3.925333 37.888-13.653333 33.962667-33.962667-2.218667-11.264-11.434667-20.309333-22.698667-22.528z" fill="#572C00" p-id="29895"></path></svg>